#!OML:ASF I:\Actors\actors\Patient Classification 1\Patient 1\Session 1\Subject1.ASF
:FULLY-SPECIFIED
:DEGREES
402
root 0.837894 17.4676 9.04825 7.96833 -0.688396 -8.85596
lowerback -4.89829 2.01135 7.48966
upperback -6.96953 2.64004 2.6394
thorax -4.32034 1.04193 -1.40321
lowerneck 0.0720815 8.06921 8.1244
upperneck 20.488 8.79801 10.4225
head 6.17873 5.62583 2.46258
rclavicle 1.01287e-014 2.74323e-014
rhumerus 2.08887 43.8554 -101.518
rradius 145.863
rwrist -48.2471
rhand 6.65548 -52.4578
rfingers 7.12502
rthumb 31.9477 -439.674
lclavicle 1.01287e-014 2.74323e-014
lhumerus -58.1559 -57.0151 135.459
lradius 88.83
lwrist 78.1423
lhand 5.38753 1.63167
lfingers 7.12502
lthumb 30.7395 29.0825
rfemur -1.60029 24.5388 26.6521
rtibia 4.14424
rfoot -13.6603 -22.4224
rtoes 1.30487
lfemur 7.16389 -40.5747 -12.2974
ltibia -3.72791
lfoot -19.4443 47.7393
ltoes 5.07209
403
root 0.838189 17.4668 9.04882 7.98183 -0.63255 -8.85801
lowerback -4.88015 2.0503 7.5515
upperback -6.9539 2.68959 2.56834
thorax -4.30476 1.06267 -1.51059
lowerneck -0.0890419 7.95807 9.22973
upperneck 20.5356 8.79349 8.97094
head 6.3596 5.60556 1.85607
rclavicle -3.91784e-015 -1.51511e-014
rhumerus 1.8753 43.1755 -101.678
rradius 145.966
rwrist -48.2221
rhand 6.72368 -52.0727
rfingers 7.12502
rthumb 32.0126 -439.276
lclavicle -3.91784e-015 -1.51511e-014
lhumerus -58.4641 -57.2931 135.718
lradius 88.7587
lwrist 78.1443
lhand 5.19071 1.66307
lfingers 7.12502
lthumb 30.5519 29.149
rfemur -1.59298 24.553 26.6554
rtibia 4.11282
rfoot -13.6655 -22.4868
rtoes 1.18301
lfemur 7.12214 -40.6231 -12.2661
ltibia -3.70937
lfoot -19.511 47.7131
ltoes 5.10094
404
root 0.838485 17.4665 9.04923 8.00023 -0.588562 -8.84869
lowerback -4.86436 2.06158 7.58323
upperback -6.95107 2.70454 2.53345
thorax -4.30681 1.06772 -1.56455
lowerneck -0.140856 7.96057 9.4647
upperneck 20.4121 8.83782 8.6533
head 6.35758 5.61573 1.72244
rclavicle 9.82353e-015 2.37175e-014
rhumerus 1.52494 42.5669 -101.946
rradius 146.048
rwrist -47.9321
rhand 6.79968 -51.4975
rfingers 7.12502
rthumb 32.085 -438.686
lclavicle 9.82353e-015 2.37175e-014
lhumerus -58.6882 -57.5285 135.939
lradius 88.6197
lwrist 78.1763
lhand 5.12622 1.71161
lfingers 7.12502
lthumb 30.4904 29.209
rfemur -1.60633 24.5399 26.6317
rtibia 4.09065
rfoot -13.6539 -22.5277
rtoes 0.976611
lfemur 7.06634 -40.67 -12.2432
ltibia -3.69011
lfoot -19.6338 47.6993
ltoes 5.25124
405
root 0.838808 17.4667 9.04959 8.04043 -0.526226 -8.87673
lowerback -4.88208 2.08143 7.60654
upperback -6.93572 2.72757 2.52402
thorax -4.27747 1.07924 -1.58591
lowerneck -0.249535 7.96338 9.42622
upperneck 20.2355 8.82815 8.73979
head 6.31244 5.60717 1.75283
rclavicle -2.4289e-015 -1.24054e-014
rhumerus 1.13619 41.7717 -102.22
rradius 146.117
rwrist -47.7423
rhand 6.8316 -50.665
rfingers 7.12502
rthumb 32.1154 -437.848
lclavicle -2.4289e-015 -1.24054e-014
lhumerus -58.8661 -57.8475 136.179
lradius 88.426
lwrist 78.2037
lhand 5.11697 1.80942
lfingers 7.12502
lthumb 30.4815 29.3084
rfemur -1.65141 24.5039 26.6436
rtibia 4.07884
rfoot -13.6483 -22.5554
rtoes 1.03285
lfemur 6.95148 -40.6331 -12.1303
ltibia -3.66703
lfoot -19.5782 47.6304
ltoes 5.1954
406
root 0.838932 17.4672 9.05007 8.07562 -0.440025 -8.88032
lowerback -4.85309 2.09944 7.52249
upperback -6.97638 2.76017 2.54831
thorax -4.33819 1.09756 -1.51533
lowerneck -0.573195 7.90768 9.17507
upperneck 20.2274 8.7022 8.89743
head 6.34207 5.54521 1.84639
rclavicle 1.47916e-014 2.73205e-014
rhumerus 0.483508 40.8657 -102.582
rradius 146.163
rwrist -47.3368
rhand 6.51906 -49.3071
rfingers 7.12502
rthumb 31.8178 -436.549
lclavicle 1.47916e-014 2.73205e-014
lhumerus -59.2341 -58.1245 136.656
lradius 88.2401
lwrist 78.2904
lhand 4.78767 1.98225
lfingers 7.12502
lthumb 30.1674 29.5391
rfemur -1.68615 24.4613 26.6366
rtibia 4.07641
rfoot -13.6604 -22.5853
rtoes 1.24193
lfemur 6.82195 -40.572 -12.0288
ltibia -3.64763
lfoot -19.2861 47.5287
ltoes 4.81013
407
root 0.837343 17.4671 9.05024 8.09982 -0.371681 -8.90271
lowerback -4.70227 2.09777 7.39202
upperback -7.09471 2.78673 2.61435
thorax -4.55469 1.10989 -1.38141
lowerneck -0.814237 7.8178 8.79662
upperneck 20.1825 8.54665 9.09799
head 6.33617 5.46023 1.9648
rclavicle 1.97915e-014 -4.70312e-014
rhumerus -0.474627 40.1943 -103.131
rradius 146.076
rwrist -45.8636
rhand 5.45711 -47.1866
rfingers 7.12502
rthumb 30.8059 -434.625
lclavicle 1.97915e-014 -4.70312e-014
lhumerus -59.7683 -58.2602 137.299
lradius 88.0591
lwrist 78.4713
lhand 4.293 2.17132
lfingers 7.12502
lthumb 29.6954 29.8133
rfemur -1.70584 24.4996 26.6672
rtibia 4.08414
rfoot -13.6966 -22.6514
rtoes 1.32088
lfemur 6.73623 -40.5682 -11.9216
ltibia -3.65262
lfoot -19.1759 47.4848
ltoes 4.67641
408
root 0.835225 17.4658 9.0508 8.13012 -0.31377 -8.94215
lowerback -4.59372 2.06661 7.27326
upperback -7.20404 2.76877 2.69237
thorax -4.74178 1.10128 -1.24044
lowerneck -0.901315 7.72079 8.39064
upperneck 19.9542 8.42232 9.26763
head 6.24453 5.37412 2.06494
rclavicle -1.77819e-015 9.38015e-015
rhumerus -1.34574 38.7923 -103.727
rradius 145.901
rwrist -46.237
rhand 3.72568 -46.1016
rfingers 7.12502
rthumb 29.1538 -433.839
lclavicle -1.77819e-015 9.38015e-015
lhumerus -60.2326 -58.3288 137.835
lradius 87.8654
lwrist 78.6252
lhand 3.92276 2.42453
lfingers 7.12502
lthumb 29.342 30.129
rfemur -1.72419 24.5966 26.7195
rtibia 4.07378
rfoot -13.75 -22.7474
rtoes 1.4205
lfemur 6.68043 -40.6225 -11.8239
ltibia -3.65405
lfoot -19.2244 47.5127
ltoes 4.63407
409
root 0.83417 17.4644 9.05215 8.17104 -0.239927 -8.94558
lowerback -4.53869 2.20338 7.26531
upperback -7.29888 2.95794 2.52478
thorax -4.85161 1.18626 -1.41126
lowerneck -1.14762 7.42779 8.34374
upperneck 19.7375 7.98256 9.44613
head 6.20954 5.16573 2.10469
rclavicle -3.16378e-014 3.54334e-014
rhumerus -1.9595 36.6655 -104.165
rradius 145.725
rwrist -46.7091
rhand 1.05688 -45.125
rfingers 7.12502
rthumb 26.6023 -433.276
lclavicle -3.16378e-014 3.54334e-014
lhumerus -61.4985 -58.9456 138.997
lradius 87.7102
lwrist 78.7371
lhand 3.74146 2.72565
lfingers 7.12502
lthumb 29.1688 30.4602
rfemur -1.76293 24.5917 26.7128
rtibia 4.06772
rfoot -13.7836 -22.802
rtoes 1.41948
lfemur 6.60482 -40.686 -11.7704
ltibia -3.63867
lfoot -19.1656 47.5366
ltoes 4.47077
410
root 0.833511 17.4635 9.05431 8.22107 -0.151802 -8.93066
lowerback -4.57599 2.03127 7.08996
upperback -7.36897 2.73836 2.70828
thorax -4.93682 1.08733 -1.12579
lowerneck -1.37135 7.41839 7.55059
upperneck 19.9296 7.93321 9.78394
head 6.24921 5.1241 2.34349
rclavicle -2.32547e-014 1.30328e-014
rhumerus -1.71851 35.9096 -103.876
rradius 145.596
rwrist -46.8628
rhand -2.2731 -44.6358
rfingers 7.12502
rthumb 23.4114 -433.232
lclavicle -2.32547e-014 1.30328e-014
lhumerus -61.3588 -58.7624 138.959
lradius 87.4887
lwrist 78.6873
lhand 3.66015 3.34253
lfingers 7.12502
lthumb 29.0912 31.0906
rfemur -1.81998 24.4851 26.6712
rtibia 4.07483
rfoot -13.7903 -22.8069
rtoes 1.21583
lfemur 6.50976 -40.7713 -11.7257
ltibia -3.62487
lfoot -19.1185 47.5419
ltoes 4.42622
